<?xml version="1.0" encoding="iso-8859-1"?>
<!-- Generator: Adobe Illustrator 19.0.0, SVG Export Plug-In . SVG Version: 6.00 Build 0)  -->
<svg version="1.1" id="Capa_1" xmlns="http://www.w3.org/2000/svg" xmlns:xlink="http://www.w3.org/1999/xlink" x="0px" y="0px"
	 viewBox="0 0 511.999 511.999" style="enable-background:new 0 0 511.999 511.999;" xml:space="preserve">
<path style="fill:#D4E78A;" d="M344.232,99.644H39.584c-17.711,0-32.068,14.358-32.068,32.068v216.46
	c0,17.711,14.358,32.068,32.068,32.068h48.102l96.205,80.171v-80.171h160.341c17.711,0,32.068-14.358,32.068-32.068v-216.46
	C376.3,114.002,361.943,99.644,344.232,99.644z"/>
<path style="fill:#BFDC4F;" d="M111.738,356.19H63.635c-17.711,0-32.068-14.358-32.068-32.068v-216.46
	c0-2.475,0.29-4.882,0.821-7.196c-14.244,3.268-24.872,16.012-24.872,31.247v216.46c0,17.711,14.358,32.068,32.068,32.068h48.102
	l96.205,80.171v-44.094L111.738,356.19z"/>
<rect x="343.091" y="60.708" transform="matrix(0.7071 0.7071 -0.7071 0.7071 237.8418 -212.2746)" style="fill:#FFE340;" width="64.136" height="240.509"/>
<rect x="370.465" y="72.038" transform="matrix(0.7071 0.7071 -0.7071 0.7071 249.1744 -216.9748)" style="fill:#FF66B2;" width="32.068" height="240.509"/>
<polygon style="fill:#FFF0DF;" points="312.803,288.664 239.107,317.008 267.452,243.313 "/>
<path style="fill:#F3F2ED;" d="M477.201,56.239l22.675,22.675c6.261,6.261,6.261,16.414,0,22.675l-17.007,17.007l-45.35-45.351
	l17.007-17.007C460.787,49.977,470.94,49.977,477.201,56.239z"/>
<polygon style="fill:#6C8181;" points="239.107,317.008 280.05,301.261 254.854,276.066 "/>
<path d="M95.704,179.314h40.085c4.152,0,7.516-3.364,7.516-7.516s-3.364-7.516-7.516-7.516H95.704c-4.152,0-7.516,3.364-7.516,7.516
	S91.552,179.314,95.704,179.314z"/>
<path d="M247.526,171.798c0-4.152-3.364-7.516-7.516-7.516h-72.153c-4.152,0-7.516,3.364-7.516,7.516s3.364,7.516,7.516,7.516
	h72.153C244.162,179.314,247.526,175.949,247.526,171.798z"/>
<path d="M95.704,243.45h72.153c4.152,0,7.516-3.364,7.516-7.516s-3.364-7.516-7.516-7.516H95.704c-4.152,0-7.516,3.364-7.516,7.516
	S91.552,243.45,95.704,243.45z"/>
<path d="M95.704,283.535h32.068c4.152,0,7.516-3.364,7.516-7.516c0-4.152-3.364-7.516-7.516-7.516H95.704
	c-4.152,0-7.516,3.364-7.516,7.516C88.188,280.171,91.552,283.535,95.704,283.535z"/>
<path d="M231.492,276.019c0-4.152-3.364-7.516-7.516-7.516H159.84c-4.152,0-7.516,3.364-7.516,7.516
	c0,4.152,3.364,7.516,7.516,7.516h64.136C228.128,283.535,231.492,280.171,231.492,276.019z"/>
<path d="M95.704,323.621h120.256c4.152,0,7.516-3.364,7.516-7.516c0-4.152-3.364-7.516-7.516-7.516H95.704
	c-4.152,0-7.516,3.364-7.516,7.516C88.188,320.256,91.552,323.621,95.704,323.621z"/>
<path d="M239.509,235.934c0-4.152-3.364-7.516-7.516-7.516h-32.068c-4.152,0-7.516,3.364-7.516,7.516s3.364,7.516,7.516,7.516
	h32.068C236.145,243.45,239.509,240.086,239.509,235.934z"/>
<path d="M505.191,73.599l-22.675-22.675c-9.079-9.077-24.227-9.077-33.306,0l-67.646,67.646
	c-5.433-15.385-20.112-26.441-37.332-26.441h-55.786c-4.152,0-7.516,3.364-7.516,7.516c0,4.152,3.364,7.516,7.516,7.516h55.786
	c13.42,0,24.353,10.823,24.543,24.197l-106.639,106.64c-0.737,0.737-1.325,1.645-1.7,2.617l-28.344,73.696
	c-2.288,5.947,3.751,12.009,9.713,9.713l73.696-28.344c0.969-0.392,1.876-0.956,2.617-1.7l50.667-50.666v104.861
	c0,13.539-11.013,24.552-24.552,24.552H183.891c-4.152,0-7.516,3.364-7.516,7.516v64.123l-83.876-69.898
	c-1.352-1.125-3.053-1.742-4.812-1.742H39.584c-13.539,0-24.552-11.013-24.552-24.552v-216.46c0-13.539,11.013-24.552,24.552-24.552
	h215.125c4.152,0,7.516-3.364,7.516-7.516c0-4.152-3.364-7.516-7.516-7.516H39.584C17.758,92.129,0,109.887,0,131.713v216.46
	C0,370,17.758,387.758,39.584,387.758h45.381l94.114,78.429c4.808,4.006,12.328,0.453,12.328-5.774v-72.655h152.825
	c21.826,0,39.584-17.758,39.584-39.584V230.924c0-0.798-0.126-1.565-0.357-2.287l121.732-121.732
	C514.269,97.825,514.269,82.678,505.191,73.599z M312.803,278.035l-12.047-12.047l159.437-159.437l12.047,12.047L312.803,278.035z
	 M281.91,292.492l-18.288-18.287l6.692-17.4l28.995,28.995L281.91,292.492z M252.192,303.923l5.525-14.364l8.839,8.839
	L252.192,303.923z M437.518,83.875l12.047,12.047L290.127,255.358l-12.047-12.047L437.518,83.875z M494.562,96.275l-11.692,11.692
	l-34.722-34.722l11.692-11.692c3.32-3.321,8.725-3.321,12.047,0l22.675,22.675C497.883,87.549,497.883,92.955,494.562,96.275z"/>
<g>
</g>
<g>
</g>
<g>
</g>
<g>
</g>
<g>
</g>
<g>
</g>
<g>
</g>
<g>
</g>
<g>
</g>
<g>
</g>
<g>
</g>
<g>
</g>
<g>
</g>
<g>
</g>
<g>
</g>
</svg>
